<svg xmlns="http://www.w3.org/2000/svg" xmlns:xlink="http://www.w3.org/1999/xlink" viewBox="0 0 196.99 196.99"><defs><style>.a{fill:url(#a);}.b{fill:#3c3c3b;}.c{fill:#fff;}.d{fill:#afca0b;}</style><radialGradient id="a" cx="98.5" cy="98.5" r="98.5" gradientUnits="userSpaceOnUse"><stop offset="0" stop-color="#afca0b"/><stop offset="1" stop-color="#90ae00"/></radialGradient></defs><rect class="a" width="196.99" height="196.99"/><rect class="b" x="57.27" y="135.74" width="85.75" height="27.51" rx="3.48"/><path class="b" d="M112,36.8h27.29a4.77,4.77,0,0,1,4.77,4.77V69.69a4.77,4.77,0,0,1-4.77,4.77H112a4.76,4.76,0,0,1-4.76-4.76V41.57A4.76,4.76,0,0,1,112,36.8Z"/><path class="b" d="M100.2,41.19v25h-.09c-9.77,0-16.4,7.68-16.4,16.75s6.63,16.76,16.4,16.76c9.61,0,16.24-7.68,16.24-16.76v-.2H144.1v.2c0,23.74-19.55,41.72-44,41.72-24.61,0-44.16-18-44.16-41.72s19.55-41.71,44.15-41.71Z"/><rect class="c" x="54.2" y="132.68" width="85.75" height="27.51" rx="3.48"/><path class="c" d="M109,33.74h27.29A4.77,4.77,0,0,1,141,38.5V66.62a4.77,4.77,0,0,1-4.77,4.77H109a4.76,4.76,0,0,1-4.76-4.76V38.5A4.76,4.76,0,0,1,109,33.74Z"/><path class="c" d="M97.13,38.13v25h-.08c-9.77,0-16.41,7.68-16.41,16.76S87.27,96.6,97.05,96.6c9.6,0,16.23-7.69,16.23-16.76v-.2H141v.2c0,23.73-19.55,41.71-44,41.71-24.61,0-44.16-18-44.16-41.71S72.44,38.13,97.05,38.13Z"/><path class="b" d="M119.8,57.84l-7.06-4.31a3.39,3.39,0,0,1-.64-.49,3.54,3.54,0,0,1-1.12-2.6,3.61,3.61,0,0,1,1.75-3.09l9.57-5.87A3.87,3.87,0,0,1,127,42a3.49,3.49,0,0,1,1.1,2.58,3.09,3.09,0,0,1-1,2.25l-1.59,1.52-.92-1,1.59-1.53a1.73,1.73,0,0,0,.56-1.28,2.24,2.24,0,0,0-.7-1.63,2.31,2.31,0,0,0-.58-.4,2.57,2.57,0,0,0-2.53.08l-9.56,5.87a2.25,2.25,0,0,0-.42,3.58,2.1,2.1,0,0,0,.41.31l7.07,4.32Z"/><path class="d" d="M120.92,64.21a3.93,3.93,0,0,1-1.81-.44,3.87,3.87,0,0,1-.87-.63,3.49,3.49,0,0,1-1.11-2.59,3.07,3.07,0,0,1,1-2.25l2.06-2a2.27,2.27,0,0,0,.1-3.21l-.1-.11-2-2a3,3,0,0,1-1-2.25,3.56,3.56,0,0,1,2-3.2,3.75,3.75,0,0,1,3.79.11l9.63,5.88a4.41,4.41,0,0,1,.64.5,3.57,3.57,0,0,1,.1,5,3.49,3.49,0,0,1-.74.59L123,63.64A3.85,3.85,0,0,1,120.92,64.21Zm0-17.73a2.51,2.51,0,0,0-1.19.31,2.28,2.28,0,0,0-1.27,2h0A1.79,1.79,0,0,0,119,50.1l2.06,2a3.61,3.61,0,0,1,.14,5.1l-.14.14-2.06,2a1.8,1.8,0,0,0-.56,1.29,2.2,2.2,0,0,0,.7,1.62,3.43,3.43,0,0,0,.58.42,2.57,2.57,0,0,0,2.53-.1l9.57-5.86a2.3,2.3,0,0,0,1.12-2,2.26,2.26,0,0,0-.7-1.62,2.65,2.65,0,0,0-.42-.33l-9.64-5.87A2.31,2.31,0,0,0,120.92,46.48Z"/><path class="b" d="M119.8,57.84l-7.06-4.31a3.39,3.39,0,0,1-.64-.49,3.54,3.54,0,0,1-1.12-2.6,3.61,3.61,0,0,1,1.75-3.09l9.57-5.87A3.87,3.87,0,0,1,127,42a3.49,3.49,0,0,1,1.1,2.58,3.09,3.09,0,0,1-1,2.25l-1.59,1.52-.92-1,1.59-1.53a1.73,1.73,0,0,0,.56-1.28,2.24,2.24,0,0,0-.7-1.63,2.31,2.31,0,0,0-.58-.4,2.57,2.57,0,0,0-2.53.08l-9.56,5.87a2.25,2.25,0,0,0-.42,3.58,2.1,2.1,0,0,0,.41.31l7.07,4.32Z"/><path class="d" d="M120.92,64.21a3.93,3.93,0,0,1-1.81-.44,3.87,3.87,0,0,1-.87-.63,3.49,3.49,0,0,1-1.11-2.59,3.07,3.07,0,0,1,1-2.25l2.06-2a2.27,2.27,0,0,0,.1-3.21l-.1-.11-2-2a3,3,0,0,1-1-2.25,3.56,3.56,0,0,1,2-3.2,3.75,3.75,0,0,1,3.79.11l9.63,5.88a4.41,4.41,0,0,1,.64.5,3.57,3.57,0,0,1,.1,5,3.49,3.49,0,0,1-.74.59L123,63.64A3.85,3.85,0,0,1,120.92,64.21Zm0-17.73a2.51,2.51,0,0,0-1.19.31,2.28,2.28,0,0,0-1.27,2h0A1.79,1.79,0,0,0,119,50.1l2.06,2a3.61,3.61,0,0,1,.14,5.1l-.14.14-2.06,2a1.8,1.8,0,0,0-.56,1.29,2.2,2.2,0,0,0,.7,1.62,3.43,3.43,0,0,0,.58.42,2.57,2.57,0,0,0,2.53-.1l9.57-5.86a2.3,2.3,0,0,0,1.12-2,2.26,2.26,0,0,0-.7-1.62,2.65,2.65,0,0,0-.42-.33l-9.64-5.87A2.31,2.31,0,0,0,120.92,46.48Z"/></svg>